<svg id="Layer_1" data-name="Layer 1" xmlns="http://www.w3.org/2000/svg" viewBox="0 0 2982.09 525.9"><defs><style>.cls-1{fill:#071540;}.cls-2{fill:#2760ff;}</style></defs><title>blackfynn_logo_lockup_RGB_FULL</title><path class="cls-1" d="M200,100A50,50,0,0,0,200,0H50a50,50,0,0,0,0,100Z"/><path class="cls-1" d="M500,100A50,50,0,0,0,500,0H350a50,50,0,0,0,0,100Z"/><path class="cls-1" d="M200,400a50,50,0,0,0,0-100H50a50,50,0,0,0,0,100Z"/><circle class="cls-1" cx="350" cy="350" r="50"/><path class="cls-2" d="M50,150a50,50,0,1,0,50,50A50,50,0,0,0,50,150Zm0,70a20,20,0,1,1,20-20A20,20,0,0,1,50,220Z"/><path class="cls-2" d="M500,300a50,50,0,1,0,50,50A50,50,0,0,0,500,300Zm0,70a20,20,0,1,1,20-20A20,20,0,0,1,500,370Z"/><path class="cls-1" d="M500,150a50,50,0,0,0-45.83,30H395.83a50,50,0,0,0-91.66,0H245.83a50,50,0,1,0,0,40h58.34a50,50,0,0,0,91.66,0h58.34A50,50,0,1,0,500,150Z"/><path class="cls-1" d="M1240.56,128.19v30.47c-15.23-22.31-38.63-35.91-72.36-35.91-64.2,0-123.5,53.86-123.5,141.46,0,88.68,59.85,141.46,121.87,141.46,33.19,0,58.22-13.6,74-37.54v32.1h92.49v-272ZM1185.5,320a55.5,55.5,0,1,1,55.5-55.5A55.5,55.5,0,0,1,1185.5,320Z"/><path class="cls-1" d="M1627,320.13l-79.18-33.93a55.58,55.58,0,1,1,.19-43.36l79-34.31a141.7,141.7,0,1,0,0,111.61Z"/><path class="cls-1" d="M623.6,3.06H758c95.76,0,144.72,38.08,144.72,112.62,0,34.82-14.15,60.39-38.63,77.26,32.1,16.87,50.05,45.16,50.05,86.51,0,82.7-57.13,120.78-152.34,120.78H623.6ZM716.09,86.3v68.55h46.25c33.73,0,46.25-14.69,46.25-35.91,0-21.76-13.6-32.64-46.79-32.64Zm0,154v76.17H764c37,0,53.32-14.15,53.32-39.17s-12.51-37-53.86-37Z"/><path class="cls-1" d="M1024,3.06V400.22H933.72V3.06Z"/><path class="cls-1" d="M1769.93,306.1l-31.56,38.63v55.5h-90.86V3.06h90.86V233.74l85.42-105.55h108.27L1835.22,246.8l101.2,153.43H1833Z"/><path class="cls-1" d="M1941.31,128.19h40.26c0-92.49,31.56-125.14,127.86-125.14h9.79V92.28c-43,0-46.79,3.26-46.79,31.56v4.35h46.79V209.8h-46.79V400.22h-90.86V209.8h-40.26Z"/><path class="cls-1" d="M2234,388.8,2130.09,128.19h96.3l54.41,144.72,50.6-144.72h94.67L2274.81,525.9h-93.58Z"/><path class="cls-1" d="M2440.21,128.19h91.95v30.47c16.32-22.31,40.8-35.91,70.18-35.91,58.21,0,96.3,38.08,96.3,103.92V400.22h-94.12V246.8c0-28.29-11.43-44.07-35.36-44.07-21.22,0-36.45,15.23-36.45,47.88V400.22h-92.49Z"/><path class="cls-1" d="M2723.66,128.19h91.95v30.47c16.32-22.31,40.8-35.91,70.18-35.91,58.22,0,96.3,38.08,96.3,103.92V400.22H2888V246.8c0-28.29-11.43-44.07-35.37-44.07-21.22,0-36.45,15.23-36.45,47.88V400.22h-92.49Z"/></svg>